<svg height="512" viewBox="0 0 31.91 31.864" width="512" xmlns="http://www.w3.org/2000/svg"><g id="Layer_2" data-name="Layer 2"><g id="Layer_1-2" data-name="Layer 1"><g id="male_avatar_circle" data-name="male avatar circle"><path d="m25.851 24.16c-6.643-3.72-19.97-2.613-21.851 2.383 5.814 7.094 18.106 7.093 23.92 0a4.2 4.2 0 0 0 -2.069-2.383z" fill="#f8b55b"/><path d="m15.955 0c-13.608-.2-21.043 16.629-11.955 26.543 1.379-5.216 20.386-7.044 23.92 0 9.08-9.916 1.639-26.743-11.965-26.543z" fill="#8ddef1"/><path d="m22.576 10.96a6.62 6.62 0 1 1 -13.223 0c-.361-8.119 13.585-8.119 13.223 0z" fill="#556dd3"/><g fill="#769aff"><path d="m19.942 22.207a4.262 4.262 0 0 1 -1.183-2.4h-5.613a4.425 4.425 0 0 1 -1.178 2.467c.964 3.879 7.1 3.855 7.974-.067z"/><path d="m12.208 9.884a7.519 7.519 0 0 1 7.485 0c0 .707.73 2.554 1.437 2.554 2.1-1.265 2.236 3.624.386 3.2-1.654 6.876-9.481 6.87-11.131 0-1.851.423-1.708-4.466.386-3.2.706 0 1.437-1.847 1.437-2.554z"/></g></g></g></g></svg>