<svg id="Layer_1" height="512" viewBox="0 0 512 512" width="512" xmlns="http://www.w3.org/2000/svg" data-name="Layer 1"><path d="m237 61v229l45 191h198v-420zm74.381 403.57a15.366 15.366 0 0 1 .579 4.14z" fill="#f4d9c4"/><path d="m383.1 352.96h49.47v65.3h-49.47z" fill="#a0eaea"/><path d="m284.16 115.5h49.47v65.3h-49.47z" fill="#a0eaea"/><path d="m284 234v36.06l28.13 29.94h21.87v-66z" fill="#a0eaea"/><path d="m383.1 234.23h49.47v65.3h-49.47z" fill="#a0eaea"/><path d="m383.1 115.5h49.47v65.3h-49.47z" fill="#a0eaea"/><path d="m295.15 352.96h38.48v65.3h-38.48z" fill="#a0eaea"/><path d="m231 31h255v30h-255z" fill="#bca291"/><path d="m43 302h252v153h-252z" fill="#acbfc9"/><path d="m85 347h168v23h-168z" fill="#798795"/><path d="m246.12 369.98v83.33h-77.05v-82.93-.4z" fill="#4689d3"/><path d="m169.07 370.38v82.93h-77.06v-83.33h77.06z" fill="#5fa8ed"/><path d="m43 302h30v153h-30z" fill="#7e8f96"/><path d="m26 270h286v34h-286z" fill="#798795"/><path d="m296.56 453h-254.99a15.814 15.814 0 0 0 -15.57 15.71v12.29h286v-12.29a15.7 15.7 0 0 0 -15.44-15.71z" fill="#798795"/><path d="m26 270h30v34h-30z" fill="#5e6c77"/><path d="m71.57 453h-30a15.814 15.814 0 0 0 -15.57 15.71v12.29h30v-12.29a15.814 15.814 0 0 1 15.57-15.71z" fill="#5e6c77"/><g fill="#284268"><path d="m486 25h-255.269c-3.314 0-5.731 3.089-5.731 6.4v29.685c0 3.266 2 5.918 6 5.993v196.922h-205a6.055 6.055 0 0 0 -6 6.063v34.024a5.927 5.927 0 0 0 6 5.913h11v137.815a21.192 21.192 0 0 0 -17 20.891v11.894a6.519 6.519 0 0 0 6.188 6.4h453.953c3.314 0 5.859-3.089 5.859-6.4v-413.522a6.3 6.3 0 0 0 6-5.993v-29.685c0-3.311-2.686-6.4-6-6.4zm-454 273v-22h274v22zm280.131-34h-22.131v-24h38v54h-10v-23.937a5.945 5.945 0 0 0 -5.869-6.063zm-11.131 95h27v53h-27zm-47.877-18h-168.115a6.175 6.175 0 0 0 -6.008 6.192v22.785a6.027 6.027 0 0 0 6.008 6.023h.992v71h-37v-137h240v137h-37v-71h1.123a5.916 5.916 0 0 0 5.877-6.023v-22.785a6.064 6.064 0 0 0 -5.877-6.192zm-162.123 23v-11h156v11zm149 12v71h-65v-71zm-77 0v71h-65v-71zm143 99h-274v-6.293a9.826 9.826 0 0 1 9.574-9.707h254.983a9.714 9.714 0 0 1 9.443 9.71zm168 0h-156v-6.29a21.2 21.2 0 0 0 -17-20.895v-23.815h32.63c3.314 0 6.37-2.423 6.37-5.736v-65.3a6.3 6.3 0 0 0 -6.37-5.964h-32.63v-37h11.131a6.3 6.3 0 0 0 5.817-4h15.682a6.738 6.738 0 0 0 6.37-6.466v-65.3a6.528 6.528 0 0 0 -6.37-6.234h-49.47a6.341 6.341 0 0 0 -6.16 6.233v29.767h-35v-197h231zm6-420h-243v-18h243z"/><path d="m383 305h49a6 6 0 0 0 6-6v-65a6 6 0 0 0 -6-6h-49a6 6 0 0 0 -6 6v65a6 6 0 0 0 6 6zm6-65h38v54h-38z"/><path d="m284 187h49a6 6 0 0 0 6-6v-65a6 6 0 0 0 -6-6h-49a6 6 0 0 0 -6 6v65a6 6 0 0 0 6 6zm6-65h38v53h-38z"/><path d="m383 187h49a6 6 0 0 0 6-6v-65a6 6 0 0 0 -6-6h-49a6 6 0 0 0 -6 6v65a6 6 0 0 0 6 6zm6-65h38v53h-38z"/><path d="m383 424h49a6 6 0 0 0 6-6v-65a6 6 0 0 0 -6-6h-49a6 6 0 0 0 -6 6v65a6 6 0 0 0 6 6zm6-65h38v53h-38z"/><path d="m261 96.9a6 6 0 0 0 6-6v-4.82a6 6 0 0 0 -12 0v4.82a6 6 0 0 0 6 6z"/><path d="m261 199.79a6 6 0 0 0 6-6v-80.88a6 6 0 1 0 -12 0v80.88a6 6 0 0 0 6 6z"/></g></svg>