<svg id="Layer_1" height="512" viewBox="0 0 512 512" width="512" xmlns="http://www.w3.org/2000/svg" data-name="Layer 1"><path d="m478.02 222.7-13.92-2.02a10.716 10.716 0 0 1 -4.746-1.91l-64.354-84.77h-88v131h-291v23h480v-44.52a21 21 0 0 0 -17.98-20.78z" fill="#8f8fb7"/><path d="m171.6 112.36h67.78v67.78h-67.78z" fill="#c79a83"/><path d="m84.83 112.36h67.79v67.78h-67.79z" fill="#c79a83"/><path d="m496 243.48v9.34h-26.69a10.048 10.048 0 0 1 -10.05-10.04v-23.78l.17-.23a10.419 10.419 0 0 0 4.67 1.91l13.92 2.02a21 21 0 0 1 17.98 20.78z" fill="#e87187"/><path d="m213.98 197.28h67.79v67.66h-67.79z" fill="#c79a83"/><path d="m128.22 197.28h67.78v67.66h-67.78z" fill="#c79a83"/><path d="m42.45 197.28h67.78v67.66h-67.78z" fill="#c79a83"/><path d="m307 134h30v131h-30z" fill="#6d6d93"/><path d="m16 265h30v23h-30z" fill="#6d6d93"/><path d="m386.04 161.23 32.54 51.22h-86.16v-51.22z" fill="#6addc7"/><path d="m16 288v44.66a20.191 20.191 0 0 0 20.19 20.19l439.62.33a20.2 20.2 0 0 0 20.19-20.2v-44.98z" fill="#6d6d93"/><path d="m46 332.66v-44.66h-30v44.66a20.319 20.319 0 0 0 20.19 20.34h30a20.319 20.319 0 0 1 -20.19-20.34z" fill="#51516b"/><path d="m454.23 353.18c.01.39.01.78.01 1.17a45.3 45.3 0 0 1 -90.59 0c0-.39.01-.79.01-1.18a45.3 45.3 0 0 1 90.57.01z" fill="#5f6675"/><path d="m58.2 352.85a45.3 45.3 0 0 1 90.56.32c.01.39.01.78.01 1.17a45.3 45.3 0 1 1 -90.59 0c0-.5.01-.99.02-1.49z" fill="#5f6675"/><path d="m408.95 335a19.345 19.345 0 1 1 -19.34 19.35 19.346 19.346 0 0 1 19.34-19.35z" fill="#726d68"/><path d="m103.47 335a19.345 19.345 0 1 1 -19.34 19.35 19.346 19.346 0 0 1 19.34-19.35z" fill="#726d68"/><g fill="#284268"><path d="m254.235 211h-12.719a6 6 0 1 0 0 12h12.719a6 6 0 0 0 0-12z"/><path d="m168.468 211h-12.72a6 6 0 0 0 0 12h12.72a6 6 0 0 0 0-12z"/><path d="m82.7 211h-12.719a6 6 0 1 0 0 12h12.719a6 6 0 0 0 0-12z"/><path d="m172 186h68a6 6 0 0 0 6-6v-68a6 6 0 0 0 -6-6h-68a6 6 0 0 0 -6 6v68a6 6 0 0 0 6 6zm6-68h55v56h-55z"/><path d="m211.852 126h-12.72a6 6 0 0 0 0 12h12.72a6 6 0 0 0 0-12z"/><path d="m85 186h68a6 6 0 0 0 6-6v-68a6 6 0 0 0 -6-6h-68a6 6 0 0 0 -6 6v68a6 6 0 0 0 6 6zm6-68h56v56h-56z"/><path d="m125.084 126h-12.719a6 6 0 0 0 0 12h12.719a6 6 0 0 0 0-12z"/><path d="m103.474 329a25.344 25.344 0 1 0 25.343 25.344 25.373 25.373 0 0 0 -25.343-25.344zm0 38.688a13.344 13.344 0 1 1 13.343-13.344 13.359 13.359 0 0 1 -13.343 13.346z"/><path d="m408.952 329a25.344 25.344 0 1 0 25.348 25.346 25.374 25.374 0 0 0 -25.348-25.346zm0 38.688a13.344 13.344 0 1 1 13.348-13.342 13.36 13.36 0 0 1 -13.348 13.344z"/><path d="m478.879 216.76-13.922-2.02a4.462 4.462 0 0 1 -2.948-1.749l-62.057-82.606a5.994 5.994 0 0 0 -4.8-2.385h-87.971a6.139 6.139 0 0 0 -6.181 5.978v125.022h-13v-61.719a6.448 6.448 0 0 0 -6.232-6.281h-67.785a6.233 6.233 0 0 0 -5.983 6.281v61.719h-6v-61.719a6.247 6.247 0 0 0 -6-6.281h-67.784a6.433 6.433 0 0 0 -6.216 6.281v61.719h-6v-61.719c0-3.313-2.454-6.281-5.768-6.281h-67.783a6.644 6.644 0 0 0 -6.449 6.281v61.719h-20a5.947 5.947 0 0 0 -6 5.937v67.72a26.35 26.35 0 0 0 26.191 26.343h16.2a51.284 51.284 0 0 0 102.144 0h203.35a51.286 51.286 0 0 0 102.115 0h15.806a26.072 26.072 0 0 0 26.194-26.017v-89.508a27.143 27.143 0 0 0 -23.121-26.715zm-258.879-13.76h56v56h-56zm-86 0h56v56h-56zm-86 0h56v56h-56zm55.473 190.638a39.294 39.294 0 1 1 39.294-39.294 39.338 39.338 0 0 1 -39.294 39.294zm305.47 0a39.294 39.294 0 1 1 39.293-39.294 39.338 39.338 0 0 1 -39.293 39.296zm81.057-60.655a14.06 14.06 0 0 1 -14.192 14.017h-16.083a51.285 51.285 0 0 0 -101.563 0h-203.908a51.287 51.287 0 0 0 -101.522 0h-16.541a14.338 14.338 0 0 1 -14.191-14.343v-38.657h468zm0-50.983h-468v-11h285.181a5.9 5.9 0 0 0 5.819-6.063v-124.937h79l61 81v21.776a16.445 16.445 0 0 0 16.311 16.224h20.689zm0-35h-20.689a4.439 4.439 0 0 1 -4.311-4.224v-15.866l12.023 1.725a15.2 15.2 0 0 1 12.977 14.841z"/><path d="m391.1 157.842a6.059 6.059 0 0 0 -5.062-2.842h-53.618a6.572 6.572 0 0 0 -6.42 6.23v51.216c0 3.314 3.106 5.554 6.42 5.554h86.16a5.734 5.734 0 0 0 5.065-8.883zm-53.1 48.158v-39h44.741l24.918 39z"/><path d="m352 323h4.3a6 6 0 1 0 0-12h-4.3a6 6 0 0 0 0 12z"/><path d="m255 323h76a6 6 0 0 0 0-12h-76a6 6 0 0 0 0 12z"/></g></svg>