<svg id="Layer_1" height="512" viewBox="0 0 512 512" width="512" xmlns="http://www.w3.org/2000/svg" data-name="Layer 1"><path d="m252.4 71.45h-190.23a22.3 22.3 0 0 1 22.3-22.3h145.63a22.3 22.3 0 0 1 22.3 22.3z" fill="#b0b5ca"/><path d="m62.17 71.45h190.23v21.73h-190.23z" fill="#6d7486"/><path d="m268.95 256.2a13.665 13.665 0 1 1 0 27.33h-76.79l-32.86-52.54h-19.34v-26.16a9.585 9.585 0 0 1 9.59-9.59h13.1a15.982 15.982 0 0 1 13.55 7.51l33.46 53.45z" fill="#6d7486"/><path d="m192.16 283.53-32.86-52.54h-19.34-77.79v48.5l-23 25.49v91.1h204.5v-112.55z" fill="#f9d438"/><path d="m243.67 283.53v112.55h7.75a12.374 12.374 0 0 0 12.38-12.37v-100.18z" fill="#edb740"/><path d="m462.26 257.02v24.95h-153.36v-59.62l11.91-16.43 11.05-15.24h64.05a66.34 66.34 0 0 1 66.35 66.34z" fill="#edb740"/><path d="m462.26 281.97h-153.36v100.67a13.3 13.3 0 0 0 13.3 13.29h170.22l1.14-80.39z" fill="#f9d438"/><path d="m76.74 93.18h24.44v137.81h-24.44z" fill="#d4e1f4"/><path d="m226.22 396.08v.22a66.921 66.921 0 0 1 -133.84-.22v-.51a66.921 66.921 0 0 1 133.84.51z" fill="#6d7486"/><path d="m159.72 369.17a26.767 26.767 0 1 1 -27.18 26.45 26.8 26.8 0 0 1 27.18-26.45z" fill="#edb740"/><path d="m263.8 357.38h45.1v22.06h-45.1z" fill="#b0b5ca"/><path d="m263.8 336.54h45.1v20.84h-45.1z" fill="#ccd3df"/><path d="m39.17 358.69v20.96h-10.24a10.48 10.48 0 1 1 0-20.96z" fill="#fb6771"/><path d="m122.38 396.08v-.51a66.834 66.834 0 0 1 52.045-64.851 67.007 67.007 0 0 0 -82.045 64.851v.51a66.8 66.8 0 0 0 81.809 65.063 67.038 67.038 0 0 1 -51.809-65.063z" fill="#596070"/><path d="m92.17 71.45a22.3 22.3 0 0 1 22.3-22.3h-30a22.3 22.3 0 0 0 -22.3 22.3z" fill="#ccd3df"/><path d="m62.17 71.45v21.73h30v-21.73z" fill="#b0b5ca"/><path d="m92.17 279.49v-48.5h-30v48.5l-23 25.49v91.1h30v-91.1z" fill="#ffe98d"/><path d="m338.9 281.97v-59.62l11.91-16.43 11.05-15.24h-30l-11.05 15.24-11.91 16.43v59.62z" fill="#ffd98d"/><path d="m338.9 382.64v-100.67h-30v100.67a13.3 13.3 0 0 0 13.3 13.29h30a13.3 13.3 0 0 1 -13.3-13.29z" fill="#ffe98d"/><path d="m467.36 395.93v.37a66.921 66.921 0 0 1 -133.84-.37v-.36a66.92 66.92 0 0 1 133.84.36z" fill="#6d7486"/><path d="m400.86 369.17a26.767 26.767 0 1 1 -27.18 26.45 26.8 26.8 0 0 1 27.18-26.45z" fill="#edb740"/><path d="m363.52 395.93v-.36a66.835 66.835 0 0 1 52.045-64.851 67.007 67.007 0 0 0 -82.045 64.851v.36a66.8 66.8 0 0 0 81.809 65.213 67.037 67.037 0 0 1 -51.809-65.213z" fill="#596070"/><g fill="#284268"><path d="m468.26 279.607v-22.587a72.427 72.427 0 0 0 -72.35-72.34h-64.05a6 6 0 0 0 -4.86 2.478l-7.486 10.326-14.06-10.449 11.01-14.007a6 6 0 1 0 -9.434-7.416l-29.13 37.06a6 6 0 1 0 9.434 7.416l10.7-13.615 14.439 10.727-8.431 11.629a6 6 0 0 0 -1.142 3.521v108.19h-33.1v-41.052a19.653 19.653 0 0 0 -.85-39.288h-55.968l-31.695-50.631a21.857 21.857 0 0 0 -18.637-10.329h-13.1a15.607 15.607 0 0 0 -15.59 15.59v20.16h-26.78v-125.81h145.22a6 6 0 0 0 6-6v-21.73a28.332 28.332 0 0 0 -28.3-28.3h-145.63a28.332 28.332 0 0 0 -28.3 28.3v21.73a6 6 0 0 0 6 6h8.57v125.81h-8.57a6 6 0 0 0 -6 6v46.194l-21.455 23.776a6.005 6.005 0 0 0 -1.545 4.02v47.71h-4.24a16.48 16.48 0 1 0 0 32.96h4.24v10.43a6 6 0 0 0 6 6h47.5c3.207 37.225 34.438 66.667 72.251 66.77h.224a72.78 72.78 0 0 0 51.509-21.146 72.025 72.025 0 0 0 21.3-45.625h19.466a18.4 18.4 0 0 0 18.292-16.64h33.415a19.31 19.31 0 0 0 19.073 16.491h5.6c3.134 37.308 34.369 66.817 72.263 66.92h.224a72.78 72.78 0 0 0 51.51-21.146 72.035 72.035 0 0 0 21.313-45.775h19.31a6 6 0 0 0 6-5.915l1.14-80.39a6 6 0 0 0 -1.611-4.177zm-435.09 94.043h-4.24a4.48 4.48 0 1 1 0-8.96h4.24zm51.3-318.5h145.63a16.318 16.318 0 0 1 15.142 10.3h-175.913a16.315 16.315 0 0 1 15.141-10.3zm-16.3 32.03v-9.73h178.23v9.73zm27.01 12v125.81h-12.44v-125.81zm125.04 297.1a60.162 60.162 0 0 1 -18 42.889 60.852 60.852 0 0 1 -43.072 17.678h-.188c-33.242-.091-60.413-27.353-60.577-60.778v-.486c.091-33.437 27.486-60.577 61.105-60.577h.168c33.388.091 60.558 27.488 60.567 61.07zm37.58-12.57a6.382 6.382 0 0 1 -6.38 6.37h-1.75v-100.55h8.13zm11.15-106.18h-73.466l-11.527-18.43a6 6 0 0 0 -10.174 6.363l13.29 21.249a6 6 0 0 0 5.087 2.819h45.51v100.549h-5.717c-3.058-37.392-34.293-66.967-72.267-67.07h-.2a73.047 73.047 0 0 0 -72.86 67.071h-41.456v-82.794l21.455-23.777a6.005 6.005 0 0 0 1.545-4.02v-42.5h87.806l8.912 14.249a6 6 0 1 0 10.173-6.363l-10.674-17.067a6 6 0 0 0 -5.087-2.819h-13.34v-20.16a3.594 3.594 0 0 1 3.59-3.59h13.1a9.926 9.926 0 0 1 8.464 4.694l33.46 53.45a6 6 0 0 0 5.086 2.816h59.29a7.665 7.665 0 1 1 0 15.33zm33.95 95.91h-33.1v-10.06h33.1zm0-22.06h-33.1v-8.84h33.1zm158.46 44.9a60.159 60.159 0 0 1 -18 42.89 60.85 60.85 0 0 1 -43.072 17.678h-.188c-33.316-.091-60.489-27.42-60.577-60.923v-.341c.09-33.437 27.486-60.577 61.105-60.577h.168c33.314.091 60.485 27.426 60.567 60.92zm25.14-6.35h-13.419c-3.134-37.308-34.365-66.817-72.255-66.92h-.2a73.051 73.051 0 0 0 -72.85 66.921h-5.576a7.3 7.3 0 0 1 -7.3-7.29v-94.671h95.1a6 6 0 0 0 0-12h-95.1v-51.67l20.021-27.616h60.989a60.413 60.413 0 0 1 60.35 60.34v18.95h-24.927a6 6 0 0 0 0 12h28.317l27.876 29.9z"/><path d="m159.788 363.17a32.722 32.722 0 0 0 -23.449 9.407 32.77 32.77 0 0 0 22.7 56.123h.187a32.767 32.767 0 0 0 .558-65.531zm14.156 47.475a20.72 20.72 0 0 1 -14.827 6.055 20.5 20.5 0 0 1 -14.566-6.172 20.766 20.766 0 0 1 -6.011-14.855 20.464 20.464 0 0 1 6.2-14.525 20.755 20.755 0 0 1 35.333 14.876 20.533 20.533 0 0 1 -6.129 14.621z"/><path d="m127.25 248.29h-39.51a6 6 0 1 0 0 12h39.51a6 6 0 0 0 0-12z"/><path d="m127.25 268.29h-39.51a6 6 0 0 0 0 12h39.51a6 6 0 0 0 0-12z"/><path d="m400.929 363.17a32.73 32.73 0 0 0 -23.45 9.408 32.768 32.768 0 0 0 22.7 56.122.786.786 0 0 1 .186 0 32.767 32.767 0 0 0 .56-65.531zm14.155 47.476a20.754 20.754 0 0 1 -14.717 6.055h-.11a20.491 20.491 0 0 1 -14.567-6.17 20.765 20.765 0 0 1 -6.01-14.857 20.464 20.464 0 0 1 6.2-14.525 20.755 20.755 0 0 1 35.333 14.876 20.541 20.541 0 0 1 -6.129 14.621z"/><path d="m379.02 246.29h-39.5a6 6 0 1 0 0 12h39.5a6 6 0 0 0 0-12z"/></g></svg>