<?xml version="1.0" encoding="UTF-8"?>
<svg xmlns="http://www.w3.org/2000/svg" id="Layer_1" data-name="Layer 1" viewBox="0 0 512 512" width="512" height="512"><path d="M340.774,431.162a266.348,266.348,0,0,1-37.97-2.53l-31.15,40.7.06.07c19.42,5.62,43.27,8.93,69.06,8.93,65.14,0,117.94-21.12,117.94-47.17v-47.18C458.714,410.032,405.914,431.162,340.774,431.162Z" style="fill:#edb740"/><path d="M340.774,383.982a274.084,274.084,0,0,1-27.64-1.31l-10.33,45.96a266.348,266.348,0,0,0,37.97,2.53c65.14,0,117.94-21.13,117.94-47.18v-47.17C458.714,362.862,405.914,383.982,340.774,383.982Z" style="fill:#d8a43d"/><path d="M303.324,334.352l9.81,48.32a274.084,274.084,0,0,0,27.64,1.31c65.14,0,117.94-21.12,117.94-47.17v-47.18Z" style="fill:#edb740"/><path d="M171.224,252.012c-65.14,0-117.94-21.13-117.94-47.18v47.18c0,19.02,28.14,35.41,68.69,42.87l110.32-23.78,56.86-19.89v-46.38C289.154,230.882,236.354,252.012,171.224,252.012Z" style="fill:#d8a43d"/><path d="M289.154,157.662v47.17c0,26.05-52.8,47.18-117.93,47.18s-117.94-21.13-117.94-47.18v-47.17c0,26.05,52.8,47.17,117.94,47.17S289.154,183.712,289.154,157.662Z" style="fill:#edb740"/><path d="M289.154,110.482v47.18c0,26.05-52.8,47.17-117.93,47.17s-117.94-21.12-117.94-47.17v-47.18c0,26.06,52.8,47.18,117.94,47.18S289.154,136.542,289.154,110.482Z" style="fill:#d8a43d"/><path d="M53.284,63.312v47.17c0,26.06,52.8,47.18,117.94,47.18s117.93-21.12,117.93-47.18V63.312Z" style="fill:#edb740"/><path d="M53.284,252.012v47.17c0,14.05,15.36,26.66,39.72,35.31l.02.01,28.95-39.62C81.424,287.422,53.284,271.032,53.284,252.012Z" style="fill:#edb740"/><path d="M93,334.492c-24.36-8.65-39.72-21.26-39.72-35.31v47.17c0,12.08,11.34,23.09,29.99,31.43h.03l9.72-43.28Z" style="fill:#d8a43d"/><path d="M340.774,242.462a272.09,272.09,0,0,0-51.62,4.75c-25.41,4.95-45.7,13.45-56.86,23.89l71.03,63.25a266.288,266.288,0,0,0,37.45,2.46c65.14,0,117.94-21.12,117.94-47.18S405.914,242.462,340.774,242.462Z" style="fill:#ffd54f"/><circle cx="198.204" cy="380.912" r="114.954" style="fill:#ffb300"/><circle cx="198.204" cy="380.912" r="82.11" style="fill:#ffd54f"/><path d="M146.094,380.912a82.113,82.113,0,0,1,67.11-80.718,82.11,82.11,0,1,0,0,161.437A82.115,82.115,0,0,1,146.094,380.912Z" style="fill:#ddb443"/><path d="M83.284,63.312h-30v47.17c0,12.078,11.346,23.092,30,31.437Z" style="fill:#c69739"/><path d="M83.284,141.919c-18.654-8.345-30-19.359-30-31.437v47.18c0,12.073,11.346,23.085,30,31.428Z" style="fill:#ba8b36"/><path d="M83.284,189.09c-18.654-8.343-30-19.355-30-31.428v47.17c0,12.073,11.346,23.087,30,31.433Z" style="fill:#c69739"/><path d="M83.284,236.265c-18.654-8.346-30-19.36-30-31.433v47.18c0,12.073,11.348,23.082,30,31.424Z" style="fill:#ba8b36"/><path d="M83.284,283.436c-18.652-8.342-30-19.351-30-31.424v47.17c0,12.074,11.35,23.082,30,31.43Z" style="fill:#c69739"/><path d="M83.284,330.612c-18.65-8.348-30-19.356-30-31.43v47.17c0,12.08,11.34,23.09,29.99,31.43h.01Z" style="fill:#ba8b36"/><path d="M171.224,16.132c65.13,0,117.93,21.12,117.93,47.18s-52.8,47.17-117.93,47.17-117.94-21.12-117.94-47.17S106.084,16.132,171.224,16.132Z" style="fill:#ffd54f"/><path d="M83.284,63.312c0-24.027,44.883-43.854,102.939-46.8q-7.368-.374-15-.378c-65.14,0-117.94,21.12-117.94,47.18s52.8,47.17,117.94,47.17q7.622,0,15-.378C128.167,107.157,83.284,87.33,83.284,63.312Z" style="fill:#e0b641"/><path d="M150.351,389.885a6,6,0,0,0,6,6h11.922A48.077,48.077,0,0,0,213.9,429h15.75a6,6,0,0,0,0-12H213.9a36.043,36.043,0,0,1-32.766-21.115h37.41a6,6,0,0,0,0-12H178.025c-.076-.953-.126-1.913-.126-2.885s.05-1.932.126-2.885h40.518a6,6,0,0,0,0-12h-37.41A36.043,36.043,0,0,1,213.9,345h15.75a6,6,0,0,0,0-12H213.9a48.077,48.077,0,0,0-45.626,33.115H156.351a6,6,0,0,0,0,12h9.642c-.056.955-.094,1.916-.094,2.885s.038,1.93.094,2.885h-9.642A6,6,0,0,0,150.351,389.885Z" style="fill:#284268"/><path d="M74.688,69.031a6,6,0,0,0,8.443-.841h0c.715-.874,3.169-3.029,7.831-5.565A6,6,0,1,0,85.31,52.039l-.081.044c-6.934,3.771-10.108,6.947-11.383,8.5a6,6,0,0,0,.837,8.444Z" style="fill:#284268"/><path d="M109.767,54.891a5.987,5.987,0,0,0,1.646-.231c17.051-4.853,38.291-7.526,59.809-7.526a6,6,0,0,0,0-12c-22.925,0-44.743,2.761-63.094,7.984a6,6,0,0,0,1.639,11.773Z" style="fill:#284268"/><path d="M202.328,292.9a88.112,88.112,0,1,0,35.166,166.865,6,6,0,0,0,1.357-9.748h0a6.042,6.042,0,0,0-6.833-.945,76.129,76.129,0,1,1,33.327-32.349,5.867,5.867,0,0,0,1.123,7.086l.266.247a5.831,5.831,0,0,0,9.109-1.518A88.079,88.079,0,0,0,202.328,292.9Z" style="fill:#284268"/><path d="M426.4,250.706c-22.968-9.187-53.375-14.247-85.623-14.247a282.661,282.661,0,0,0-45.62,3.619V63.309c0-15.22-13.607-29.045-38.315-38.928-22.967-9.187-53.374-14.247-85.621-14.247S108.567,15.194,85.6,24.381C60.892,34.264,47.285,48.089,47.285,63.309V346.356c0,13.327,10.609,25.748,29.974,35.236a120.888,120.888,0,0,0,195.663,94.372c20.095,5.475,43.474,8.368,67.856,8.368,32.248,0,62.655-5.06,85.623-14.247,24.707-9.882,38.314-23.708,38.314-38.928V289.634C464.715,274.414,451.108,260.588,426.4,250.706ZM90.056,35.522c21.584-8.633,50.409-13.388,81.166-13.388s59.581,4.755,81.165,13.388c19.555,7.823,30.771,17.951,30.771,27.787S271.942,83.273,252.387,91.1c-21.584,8.633-50.409,13.388-81.165,13.388S111.64,99.729,90.056,91.1C70.5,83.273,59.285,73.146,59.285,63.309S70.5,43.345,90.056,35.522ZM59.285,133.96a70.462,70.462,0,0,0,12.5,8.869,5.991,5.991,0,1,0,6.116-10.3c-.073-.043-.147-.085-.222-.125-11.831-6.7-18.394-14.392-18.394-21.914v-23.7c6.39,5.79,15.231,11.018,26.314,15.451,22.968,9.187,53.375,14.247,85.623,14.247s62.654-5.06,85.621-14.247c11.084-4.433,19.925-9.661,26.315-15.451v23.7c0,9.837-11.216,19.965-30.771,27.787-21.583,8.633-50.409,13.388-81.165,13.388a270.7,270.7,0,0,1-45.489-3.716,5.934,5.934,0,0,0-6.97,5.828v.149a5.925,5.925,0,0,0,4.921,5.842,282.733,282.733,0,0,0,47.538,3.9c32.247,0,62.655-5.06,85.621-14.246,11.084-4.434,19.925-9.662,26.315-15.452v23.7c0,9.836-11.216,19.964-30.771,27.786-21.584,8.634-50.409,13.389-81.165,13.389s-59.584-4.754-81.166-13.387c-19.556-7.83-30.771-17.954-30.771-27.8Zm0,47.176c6.39,5.79,15.231,11.019,26.314,15.452,22.966,9.185,53.374,14.245,85.623,14.245s62.654-5.06,85.621-14.247c11.084-4.433,19.925-9.662,26.315-15.452v23.7c0,9.836-11.216,19.964-30.771,27.786-21.584,8.633-50.409,13.388-81.165,13.388s-59.582-4.755-81.166-13.388C70.5,224.8,59.285,214.669,59.285,204.833Zm0,47.173c6.39,5.79,15.231,11.018,26.314,15.452,22.968,9.187,53.375,14.246,85.623,14.246s62.654-5.059,85.621-14.246c11.084-4.434,19.925-9.662,26.315-15.452v14.059c-22.218,4.856-40.672,12.487-52.328,22.065a120.825,120.825,0,0,0-110.515,24.022c-36.625-7.217-61.03-21.715-61.03-36.448Zm0,47.092c10.667,9.689,28.053,17.73,50.52,23.05a121.478,121.478,0,0,0-19.82,28.483c-19.326-7.751-30.7-17.943-30.7-27.753ZM77.9,368.368c-11.921-6.742-18.613-14.542-18.613-22.012V322.714c6.3,5.687,14.985,10.82,25.866,15.211A119.993,119.993,0,0,0,77.9,368.368ZM274.579,448.8a6,6,0,0,0-8.485,8.486l4.753,4.752A108.517,108.517,0,0,1,204.2,489.7v-6.775a6,6,0,0,0-12,0V489.7a108.516,108.516,0,0,1-66.643-27.658l4.753-4.752a6,6,0,0,0-8.486-8.486h0l-4.752,4.753a108.516,108.516,0,0,1-27.658-66.643H96.19a6,6,0,0,0,0-12H89.418a108.516,108.516,0,0,1,27.658-66.643l4.753,4.754a6,6,0,1,0,8.486-8.485l-4.754-4.754a108.524,108.524,0,0,1,66.639-27.66V278.9a6,6,0,0,0,12,0v-6.776a108.518,108.518,0,0,1,66.643,27.658l-4.754,4.754a6,6,0,0,0,8.486,8.485h0l4.753-4.754a108.516,108.516,0,0,1,27.658,66.643h-6.775a6,6,0,0,0,0,12h6.775a108.516,108.516,0,0,1-27.658,66.643Zm178.136-17.645c0,9.837-11.216,19.965-30.771,27.787-21.584,8.633-50.409,13.388-81.166,13.388a258.8,258.8,0,0,1-57-6.02A121.589,121.589,0,0,0,306.3,435.136a285.778,285.778,0,0,0,33.76,2.023c32.247,0,63.373-5.061,86.341-14.248,11.083-4.433,19.924-9.662,26.314-15.452Zm0-47.175c0,9.837-11.216,19.965-30.771,27.788-21.584,8.633-50.408,13.387-81.2,13.387a260.869,260.869,0,0,1-29.389-1.52,120.131,120.131,0,0,0,7.513-34.457c7.164.53,14.49.8,21.536.8,32.247,0,63.027-5.06,86-14.247,11.083-4.433,19.924-9.661,26.314-15.451Zm0-47.173c0,9.836-11.216,19.964-30.771,27.786-21.584,8.633-50.409,13.387-81.182,13.387-7.2.01-14.463-.269-21.668-.824a120.3,120.3,0,0,0-6.548-35.695c9.176.891,18.574,1.347,27.553,1.347,32.247,0,63.334-5.061,86.3-14.248,11.083-4.433,19.924-9.662,26.314-15.452ZM421.944,317.42c-21.584,8.634-50.409,13.389-81.2,13.389a260.491,260.491,0,0,1-33.394-1.986,121.688,121.688,0,0,0-62.671-59.572c20.356-12.665,56.961-20.792,96.1-20.792,30.757,0,59.582,4.755,81.166,13.388,19.555,7.822,30.771,17.95,30.771,27.787S441.5,309.6,421.944,317.42Z" style="fill:#284268"/></svg>
