<svg id="Layer_1" height="512" viewBox="0 0 512 512" width="512" xmlns="http://www.w3.org/2000/svg" data-name="Layer 1"><path d="m396.2 187.74h-.01-280.57l-62.79 49.4v5.87h405.09v-6.34l.08-.1z" fill="#af6861"/><path d="m52.83 243.01h405.09v59.67h-405.09z" fill="#774d47"/><path d="m329.1 134.73h-146.1l-67.38 53.01h280.57z" fill="#774d47"/><path d="m464.44 162.32-181.88-137.16a43.093 43.093 0 0 0 -53.07-.04l-176.81 137.92c-14.75 11.51-29.31 26.03-23.29 47.97 0 0 7.18 11.34 11.89 8.79l.9-.71 205.92-162.09a11.242 11.242 0 0 1 3.58-1.93 13.2 13.2 0 0 1 4.23-.68 12.536 12.536 0 0 1 7.71 2.53l203.4 159.71a11.815 11.815 0 0 0 7.25 2.57c4.43 0 8.44-2.71 9.06-7.73 2.31-18.52-.78-33.29-18.89-49.15z" fill="#6d7486"/><g fill="#af6861"><path d="m329.1 134.73h-146.1l66.9-52.64a10.471 10.471 0 0 1 12.5-.06z"/><path d="m52.83 302.68h405.09v59.67h-405.09z"/><path d="m52.83 422.02h405.09v46.25h-405.09z"/></g><path d="m418.56 76.38a11.65 11.65 0 1 1 0 23.3h-43.96a11.65 11.65 0 1 1 0-23.3z" fill="#ad5e73"/><path d="m375.45 99.68v45.05l42.6 33.45v-78.5z" fill="#e87187"/><path d="m52.83 362.35h405.09v59.67h-405.09z" fill="#774d47"/><path d="m478.4 225.57-214.78-168.65a12.536 12.536 0 0 0 -7.71-2.53 13.2 13.2 0 0 0 -4.23.68 11.242 11.242 0 0 0 -3.58 1.93l-214.97 169.21a10.388 10.388 0 0 0 13.07 16.15l203.7-160.27a10.471 10.471 0 0 1 12.5-.06l203.02 160.41a10.643 10.643 0 0 0 12.98-16.87z" fill="#6e6b99"/><path d="m311.11 270.18h-110.38a11.135 11.135 0 0 0 -11.12 11.15v186.94h132.62v-186.94a11.135 11.135 0 0 0 -11.12-11.15z" fill="#5fa8ed"/><path d="m52.83 422.02h30v46.25h-30z" fill="#874e4c"/><path d="m82.83 237.14 62.79-49.4h-30l-62.79 49.4v5.87h30z" fill="#874e4c"/><path d="m52.83 243.01h30v59.67h-30z" fill="#5e3b38"/><path d="m52.83 302.68h30v59.67h-30z" fill="#874e4c"/><path d="m52.83 362.35h30v59.67h-30z" fill="#5e3b38"/><path d="m230.73 270.18h-30a11.135 11.135 0 0 0 -11.12 11.15v186.94h30v-186.94a11.135 11.135 0 0 1 11.12-11.15z" fill="#518ebf"/><path d="m468.79 468.27h-426.15a13.865 13.865 0 0 0 0 27.73h426.15a13.865 13.865 0 0 0 0-27.73z" fill="#6e6b99"/><path d="m58.8 482.13a13.862 13.862 0 0 1 13.84-13.86h-30a13.865 13.865 0 0 0 0 27.73h30a13.857 13.857 0 0 1 -13.84-13.87z" fill="#5c5c7f"/><path d="m298.227 362.385a6 6 0 0 0 -6 6v14.43a6 6 0 0 0 12 0v-14.43a6 6 0 0 0 -6-6z" fill="#284268"/><path d="m468.326 157.746-44.274-37.6v-15.355a17.667 17.667 0 0 0 12.138-17.619c-.452-9.482-8.584-16.791-18.077-16.791h-43.513a17.641 17.641 0 0 0 -14.588 7.732l-73.76-57.683a49.031 49.031 0 0 0 -60.456-.038l-92.985 72.534a6 6 0 0 0 7.381 9.462l92.985-72.534a37.051 37.051 0 0 1 45.682.028l78.388 61.3a17.691 17.691 0 0 0 12.2 13.718v27.484l-102.1-80.172a18.969 18.969 0 0 0 -22.954.072l-204.985 161.352a26.906 26.906 0 0 1 -4.46-5.1c-4.139-16.694 5.577-28.4 21.427-40.763l42.694-33.3a6 6 0 0 0 -7.381-9.473l-42.694 33.3c-16.42 12.809-32.279 29.283-25.371 54.342a5.888 5.888 0 0 0 .713 1.587 40.076 40.076 0 0 0 5.506 6.928l-.49.385a16.426 16.426 0 0 0 -5.947 14.879 14.815 14.815 0 0 0 1.055 4.017 16.424 16.424 0 0 0 22.367 8.581v213.247h-4.187a19.867 19.867 0 0 0 0 39.734h426.15a19.867 19.867 0 0 0 0-39.734h-4.869v-213.666a16.579 16.579 0 0 0 12.564 1.424 16.226 16.226 0 0 0 7.472-4.517 16.585 16.585 0 0 0 -.35-23.338 14.59 14.59 0 0 0 5.679-9.955c2.886-23.114-3.166-38.879-20.96-54.468zm-99.378-69.717a5.655 5.655 0 0 1 5.648-5.648h43.966a5.648 5.648 0 1 1 0 11.3h-43.962a5.654 5.654 0 0 1 -5.652-5.652zm43.1 17.647v60.169l-30.606-24.033v-36.136zm56.738 368.59a7.867 7.867 0 0 1 0 15.734h-426.146a7.867 7.867 0 0 1 0-15.734zm-141.77-333.536 51.906 41.011h-245.971l52.124-41.011zm-126.689-12 53.351-41.977a4.5 4.5 0 0 1 5-.016l53.15 41.993zm193.784 65.011 54.348 42.94-385.726.307 54.967-43.247zm57.81 55.268v47.67h-123.693v-15.351a17.15 17.15 0 0 0 -17.118-17.144h-110.384a17.15 17.15 0 0 0 -17.118 17.144v15.351h-124.781v-47.67zm-123.693 167.008v-47.669h123.693v47.669zm123.693 12v34.249h-123.693v-34.249zm-123.693-71.669v-47.669h123.693v47.669zm-12-75.02v180.938h-120.62v-180.938a5.137 5.137 0 0 1 5.118-5.144h110.384a5.137 5.137 0 0 1 5.118 5.144zm-132.62 27.351v47.669h-124.781v-47.669zm0 59.669v47.669h-124.781v-47.669zm0 59.669v34.249h-124.781v-34.249zm292.051-191.264a4.618 4.618 0 0 1 -6.517.976l-203.025-160.407a16.44 16.44 0 0 0 -19.929.056l-203.773 160.329a4.379 4.379 0 0 1 -7.108-3.847 4.321 4.321 0 0 1 1.536-2.935l215.036-169.261a7.009 7.009 0 0 1 8.037-.021l214.822 168.68a4.688 4.688 0 0 1 .921 6.43zm1.72-26.023a2.428 2.428 0 0 1 -1.563 2.183 5.313 5.313 0 0 1 -5.089-1l-46.675-36.65v-39.38l36.436 30.945c16.792 14.716 18.912 27.709 16.891 43.902z" fill="#284268"/></svg>