<svg id="Calque_1" data-name="Calque 1" xmlns="http://www.w3.org/2000/svg" viewBox="0 0 939.89 835.7"><defs><style>.cls-1{font-size:115.06px;font-family:Millimetre-Light, Millimetre;}.cls-1,.cls-2{fill:#fff;}</style></defs><title>ESblanc</title><text class="cls-1" transform="translate(532.15 801.18)">scénie</text><polygon class="cls-2" points="939.89 87.49 939.89 141.19 486.75 311.81 486.75 783.27 463.83 798.56 436.94 783.27 440.25 306.54 440.25 306.49 0.29 140.85 0.14 114.25 0 87.92 440.58 258.07 440.87 218.66 0.29 52.78 0.29 0 472.65 181.6 939.89 1.69 939.89 54.55 486.75 225.42 486.75 262.53 939.89 87.49"/><circle class="cls-2" cx="57.85" cy="757.91" r="4.69"/><path class="cls-2" d="M119.62,925.86h30.51V938H106.94V896.57c0-14.71,11.07-23,23.21-23a21.6,21.6,0,0,1,21.73,21.6c0,12.68-10.39,20.92-21.19,20.92-4.72,0-8-.95-11.07-3.11Zm0-30.78a10,10,0,1,0,10-10A10,10,0,0,0,119.62,895.08Z" transform="translate(-71.76 -137.18)"/><path class="cls-2" d="M273.6,925.86h32.26v12.37h-45.3v-42c0-14.87,10.21-22.44,22.53-22.44,10.93,0,20.47,5,24.26,17.59l-12.08,5.18c-1.92-8.39-6.48-10.78-11.27-10.78-6.57,0-10.4,4.12-10.4,12.08Z" transform="translate(-71.76 -137.18)"/><line class="cls-2" x1="332.43" y1="755.48" x2="332.3" y2="755.38"/><line class="cls-2" x1="332.09" y1="756.34" x2="331.89" y2="756.17"/><path class="cls-2" d="M403.61,893.31" transform="translate(-71.76 -137.18)"/><path class="cls-2" d="M454.73,896.43l-3.36,8.44L443.71,902a19.45,19.45,0,0,1,.57,6.75,19.74,19.74,0,0,1-6.56,13,20.45,20.45,0,0,1-6.72,4h0l-7.5,7.13,5.4,5.92a32.44,32.44,0,0,0,27.51-29A31.76,31.76,0,0,0,454.73,896.43ZM421,926.89a20.91,20.91,0,0,1-13.33-7.18A19.73,19.73,0,0,1,403,905.16l-2.61-9.88-8.18,2a32,32,0,0,0-1.32,6.68c-1.59,17.78,11.79,33.5,29.88,35.12l.7,0-6.19-6.79Zm5.48-52.17c-1-.09-2-.14-3-.14A32.89,32.89,0,0,0,395,890.84l9.78-2.43.74,2.78v.06l1.07,4.06a19.52,19.52,0,0,1,2.92-3.25,20.86,20.86,0,0,1,13.94-5.31c.64,0,1.29,0,1.93.09a20.93,20.93,0,0,1,14,7.07l8.88,3.33,3.06-7.69A33,33,0,0,0,426.51,874.72Z" transform="translate(-71.76 -137.18)"/></svg>