<svg id="Layer_1" height="512" viewBox="0 0 512 512" width="512" xmlns="http://www.w3.org/2000/svg" data-name="Layer 1"><path d="m449 283.86v133.79h-72.4-.04v-133.79h.04z" fill="#ffd8b7"/><path d="m290.15 36.15v80.35c-6.8-3.04-47.08-3.3-54.5 0v-80.35c7.42 3.29 47.7 3.03 54.5 0z" fill="#b0b5ca"/><path d="m246.22 455.11a40.978 40.978 0 0 0 -.45-5.07c-6.61-43.22-12-90.42-15.18-141.15-.7-11.23-1.43-24.22-2.13-37.88l-2.09-43.94c-.88-20.47-1.59-39.9-1.97-54.75h-57.48c-.41 32.74-1.99 87.59-4.12 126.46l-17.92 158.27a40.377 40.377 0 0 0 40.36 38.95h20.71a40.229 40.229 0 0 0 39.88-34.48 36.256 36.256 0 0 0 .39-6.41z" fill="#e8a467"/><path d="m161.28 146.75h69.97v25.57h-69.97z" fill="#ccd3df"/><path d="m166.65 125.8h57.89c-.25 7.56-.38 14.21-.41 20.95h-57.13c-.06-6.73-.17-13.38-.35-20.95z" fill="#b0b5ca"/><path d="m156.88 36.15v80.35c-7.44-3.3-47.7-3.04-54.49 0v-80.35c6.8 3.03 47.05 3.29 54.49 0z" fill="#b0b5ca"/><g fill="#ccd3df"><path d="m329.53 34.61v83.43a18.614 18.614 0 0 1 -18.61 18.61h-3.16a18.614 18.614 0 0 1 -18.61-18.61v-83.43a18.607 18.607 0 0 1 18.61-18.61h3.16a18.607 18.607 0 0 1 18.61 18.61z"/><path d="m155.88 25.84h80.77v100.96h-80.77z"/><path d="m103.39 116.5v1.53a18.622 18.622 0 0 1 -18.61 18.62h-3.17a18.622 18.622 0 0 1 -18.61-18.62v-83.42a18.614 18.614 0 0 1 18.61-18.61h3.17a18.614 18.614 0 0 1 18.61 18.61z"/></g><path d="m344.71 279.06c-11.71 0-22.47-4.47-32.16-10.53-8.04-5.03-4.94-41.46-41.41-41.46h-93.48v.84a43.1 43.1 0 0 0 43.1 43.1h7.7c.7 13.66 1.43 26.65 2.13 37.88 3.18 50.73 8.57 97.93 15.18 141.15a40.978 40.978 0 0 1 .45 5.07l.59-.01a120.832 120.832 0 0 0 18.67-3.88 67.737 67.737 0 0 0 16.29-7.08 122.217 122.217 0 0 1 64.47-18.38h30.32v-146.7z" fill="#5fa8ed"/><path d="m188.35 298.78h-48.88a19.785 19.785 0 0 0 0 39.57h48.88a19.785 19.785 0 1 0 0-39.57z" fill="#5fa8ed"/><path d="m188.35 338.35a19.785 19.785 0 0 1 0 39.57h-48.88a19.785 19.785 0 1 1 0-39.57z" fill="#5093c9"/><path d="m188.35 377.92a19.78 19.78 0 1 1 0 39.56h-48.88a19.78 19.78 0 1 1 0-39.56z" fill="#5fa8ed"/><path d="m188.35 417.48h-48.88a19.785 19.785 0 0 0 0 39.57h48.88a19.785 19.785 0 1 0 0-39.57z" fill="#5093c9"/><path d="m89 118.03v-83.42a18.561 18.561 0 0 1 7.2-14.675 18.514 18.514 0 0 0 -11.42-3.935h-3.17a18.614 18.614 0 0 0 -18.61 18.61v83.42a18.622 18.622 0 0 0 18.61 18.62h3.17a18.506 18.506 0 0 0 11.42-3.939 18.576 18.576 0 0 1 -7.2-14.681z" fill="#aab2bf"/><path d="m207.66 227.91v-.84h-30v.84a43.1 43.1 0 0 0 43.1 43.1h30a43.1 43.1 0 0 1 -43.1-43.1z" fill="#4f90c6"/><path d="m149.69 318.57a19.785 19.785 0 0 1 19.78-19.79h-30a19.785 19.785 0 0 0 0 39.57h30a19.779 19.779 0 0 1 -19.78-19.78z" fill="#4f90c6"/><path d="m149.69 358.13a19.768 19.768 0 0 1 19.78-19.78h-30a19.785 19.785 0 0 0 0 39.57h30a19.781 19.781 0 0 1 -19.78-19.79z" fill="#3c7399"/><path d="m149.69 397.7a19.768 19.768 0 0 1 19.78-19.78h-30a19.78 19.78 0 0 0 0 39.56h30a19.773 19.773 0 0 1 -19.78-19.78z" fill="#4f90c6"/><path d="m149.69 437.27a19.785 19.785 0 0 1 19.78-19.79h-30a19.785 19.785 0 0 0 0 39.57h30a19.779 19.779 0 0 1 -19.78-19.78z" fill="#3c7399"/><path d="m344.126 312.517a6 6 0 0 0 6-6v-4.283a6 6 0 1 0 -12 0v4.283a6 6 0 0 0 6 6z" fill="#284268"/><path d="m344.126 403.442a6 6 0 0 0 6-6v-67.933a6 6 0 0 0 -12 0v67.933a6 6 0 0 0 6 6z" fill="#284268"/><path d="m81.614 142.646h3.161a24.643 24.643 0 0 0 24.4-21.465c9.234-1.435 31.343-1.449 40.706-.044v5.663a6 6 0 0 0 6 6h4.909q.084 3.962.137 7.968a6 6 0 0 0 -5.649 5.982v25.566a6 6 0 0 0 5.558 5.977c-.484 31.035-1.873 78.486-3.725 114.487h-17.641a25.77 25.77 0 0 0 -16.512 45.566 25.744 25.744 0 0 0 0 39.567 25.744 25.744 0 0 0 0 39.567 25.77 25.77 0 0 0 16.5 45.566 46.174 46.174 0 0 0 45.779 38.954h20.775a46.221 46.221 0 0 0 45.748-39.572c.1-.676.185-1.359.255-2.044 13.655-2.223 24.493-5.9 33.015-11.213 18.758-11.69 40.626-17.412 62.73-17.412h28.8a6 6 0 0 0 6-6v-2.112h66.44a6 6 0 0 0 6-6v-133.787a6 6 0 0 0 -6-6h-66.556a6 6 0 0 0 -5.88-4.8h-31.849c-9.112 0-18.546-3.115-28.836-9.522-.879-1-2.184-4.919-3.142-7.8-4.32-12.969-11.55-34.674-41.6-34.674h-39.014c-.681-16.214-1.21-30.778-1.555-42.75h.687a6 6 0 0 0 6-6v-25.561a6 6 0 0 0 -6-6h-1.069q.057-3.994.164-7.95h6.3a6 6 0 0 0 6-6v-5.665c9.362-1.406 31.474-1.392 40.707.043a24.642 24.642 0 0 0 24.4 21.465h3.162a24.639 24.639 0 0 0 24.611-24.611v-83.423a24.64 24.64 0 0 0 -24.607-24.612h-3.162a24.643 24.643 0 0 0 -24.4 21.465c-9.234 1.435-31.346 1.449-40.708.043v-5.664a6 6 0 0 0 -6-6h-80.769a6 6 0 0 0 -6 6v5.665c-9.364 1.405-31.472 1.39-40.706-.045a24.642 24.642 0 0 0 -24.403-21.464h-3.161a24.64 24.64 0 0 0 -24.614 24.611v83.424a24.64 24.64 0 0 0 24.614 24.611zm213.536-108.034a12.626 12.626 0 0 1 12.611-12.612h3.162a12.626 12.626 0 0 1 12.611 12.612v83.423a12.626 12.626 0 0 1 -12.611 12.611h-3.162a12.626 12.626 0 0 1 -12.611-12.611zm-52.5 8.846a175.963 175.963 0 0 0 20.25 1.042 176.116 176.116 0 0 0 20.247-1.036v65.728a198.821 198.821 0 0 0 -40.5 0zm-103.18 261.325h48.882a13.783 13.783 0 0 1 0 27.566h-48.882a13.783 13.783 0 0 1 0-27.566zm85.785-152.03v13.566h-57.974v-13.566zm-52.455-19.953h45.55q-.1 3.952-.161 7.95h-45.258q-.053-3.99-.131-7.95zm47.317 88.266h-42.46a6 6 0 0 0 -5.934 5.163c.521-17.572.906-34.323 1.117-47.913h45.723c.342 11.97.87 26.534 1.55 42.753zm-80.647 123.283h48.882a13.784 13.784 0 0 1 0 27.567h-48.882a13.784 13.784 0 0 1 0-27.567zm0 39.567h48.882a13.784 13.784 0 0 1 0 27.567h-48.882a13.784 13.784 0 0 1 0-27.567zm-13.783 53.35a13.8 13.8 0 0 1 13.783-13.783h48.882a13.784 13.784 0 0 1 0 27.567h-48.882a13.8 13.8 0 0 1 -13.783-13.784zm114.213 23.342a34.223 34.223 0 0 1 -33.9 29.392h-20.762a34.23 34.23 0 0 1 -33.581-26.95h36.695a25.771 25.771 0 0 0 16.512-45.567 25.744 25.744 0 0 0 0-39.567 25.744 25.744 0 0 0 0-39.567 25.77 25.77 0 0 0 -16.512-45.566h-19.223c1.007-19.691 1.876-42.71 2.535-64.6a49.1 49.1 0 0 0 49.1 48.835h2c.628 11.871 1.247 22.7 1.844 32.246 2.954 47.225 8.08 94.9 15.235 141.687a31.867 31.867 0 0 1 .057 9.657zm31.24-227.539c21.4 0 26.08 14.061 30.212 26.467 2.133 6.4 3.817 11.46 8.018 14.086 12.312 7.7 23.873 11.439 35.345 11.439h25.849v16.513a6 6 0 0 0 12 0v-11.714h60.436v121.787h-60.436v-60.073a6 6 0 0 0 -12 0v68.185h-24.321a131.031 131.031 0 0 0 -67.988 19.491c-6.706 4.076-15.663 7.106-26.677 9.038.043.282.082.565.125.847-7.1-46.441-12.189-93.753-15.122-140.623-.584-9.337-1.189-19.915-1.8-31.5h1.773a44.331 44.331 0 0 0 12.254 25.692 45.775 45.775 0 0 0 32.964 13.634h12.553a6.167 6.167 0 0 0 6.249-5.815 6 6 0 0 0 -6-6.185h-12.974a33.555 33.555 0 0 1 -23.847-9.646 32.48 32.48 0 0 1 -9.52-23.411 6.377 6.377 0 0 0 -.246-2.018 6.026 6.026 0 0 0 -5.751-4.251h-21.473a37.164 37.164 0 0 1 -36.748-31.946zm-109.256-201.225h68.767v88.956h-68.767zm-52.5 11.615a176.134 176.134 0 0 0 20.25 1.041 176.178 176.178 0 0 0 20.25-1.037v65.729a198.882 198.882 0 0 0 -40.5 0zm-40.384-8.848a12.625 12.625 0 0 1 12.614-12.611h3.161a12.625 12.625 0 0 1 12.611 12.611v83.424a12.625 12.625 0 0 1 -12.611 12.611h-3.161a12.625 12.625 0 0 1 -12.614-12.611z" fill="#284268"/></svg>