<svg id="Layer_1" height="512" viewBox="0 0 512 512" width="512" xmlns="http://www.w3.org/2000/svg" data-name="Layer 1"><path d="m89.24 341.68-.13.04-.11.12a29.339 29.339 0 0 0 0 41.51l2.85 2.86a29.351 29.351 0 0 0 41.52 0l.38-.38z" fill="#6d7486"/><path d="m89.24 341.68-.13.04-.11.12a29.339 29.339 0 0 0 0 41.51l2.85 2.86a29.247 29.247 0 0 0 10.43 6.722 29.339 29.339 0 0 1 6.72-31.092l.11-.12.13-.04z" fill="#4d5360"/><path d="m281.02 106.68-185.65 207.19a29.021 29.021 0 0 0 1.08 39.84l24.65 24.7a29 29 0 0 0 39.84 1.14l207.52-185.41z" fill="#7d8696"/><path d="m267.86 207.3a13.019 13.019 0 0 1 0 18.42l-16.72 16.72-18.42-18.43 16.72-16.71a13.019 13.019 0 0 1 18.42 0z" fill="#5fa8ed"/><path d="m232.72 224.01 18.42 18.43-16.72 16.71a13.025 13.025 0 1 1 -18.42-18.42z" fill="#e87187"/><path d="m116.45 373.71a29.021 29.021 0 0 1 -1.08-39.84l185.647-207.188-20-20-185.647 207.188a29.021 29.021 0 0 0 1.08 39.84l24.65 24.7c.205.206.422.394.632.592z" fill="#5e6570"/><path d="m424.52 50.63a84.121 84.121 0 0 0 -108.81-8.65l-18.78 18.79a84.115 84.115 0 0 0 117.46 117.46l18.78-18.79a84.12 84.12 0 0 0 -8.65-108.81z" fill="#978cac"/><path d="m434.93 161.2-120.98-120.97a12.657 12.657 0 0 0 -17.91 0l-.87.87a12.675 12.675 0 0 0 .035 17.91l120.963 120.97a12.646 12.646 0 0 0 17.9 0l.865-.87a12.675 12.675 0 0 0 -.003-17.91z" fill="#b0b5ca"/><g fill="#284268"><path d="m245.2 203.052-33.439 33.44a19.025 19.025 0 0 0 26.901 26.908l33.44-33.439a19.025 19.025 0 1 0 -26.902-26.909zm-15.018 51.86a7.026 7.026 0 0 1 -9.937-9.935l12.474-12.477 9.936 9.936zm33.439-43.374a7.033 7.033 0 0 1 0 9.935l-12.481 12.477-9.936-9.935 12.477-12.477a7.033 7.033 0 0 1 9.936 0z"/><path d="m114.941 492a57.712 57.712 0 0 0 41.08-17.016l138.072-138.07a30.437 30.437 0 0 1 43.045 43.045l-87.193 87.193a6 6 0 0 0 8.485 8.485l87.193-87.193a42.437 42.437 0 1 0 -60.016-60.015l-138.071 138.071a46.1 46.1 0 1 1 -65.188-65.19l8.219-8.22a35.381 35.381 0 0 0 44.951-.715 34.91 34.91 0 0 0 29.424-8.35l205.958-184.017a90.106 90.106 0 0 0 42.913-14.137 18.629 18.629 0 0 0 24.485-1.647l.869-.868a18.681 18.681 0 0 0 1.645-24.483 90.1 90.1 0 0 0 -124.529-124.535 18.627 18.627 0 0 0 -24.483 1.647l-.869.868a18.682 18.682 0 0 0 -1.647 24.482 90.128 90.128 0 0 0 -14.125 42.892l-184.259 205.641a34.962 34.962 0 0 0 -8.273 30.051 35.339 35.339 0 0 0 -.546 44.681l-8.223 8.224a58.1 58.1 0 0 0 41.083 99.176zm255.941-459.783a78.123 78.123 0 0 1 61.33 117.783l-107.058-107.057a78.24 78.24 0 0 1 45.728-10.726zm-71.467 13.121.869-.868a6.668 6.668 0 0 1 9.428 0l120.972 120.972a6.677 6.677 0 0 1 0 9.429l-.87.868a6.666 6.666 0 0 1 -9.426 0l-120.972-120.972a6.675 6.675 0 0 1 -.001-9.429zm-1.527 24.871 107.057 107.057a78.123 78.123 0 0 1 -107.057-107.057zm-198.046 247.667 175.852-196.265a90.051 90.051 0 0 0 77.817 77.844l-196.565 175.621a23 23 0 0 1 -31.6-.905l-24.657-24.7a23.006 23.006 0 0 1 -.847-31.595zm-11.525 35.432a35.1 35.1 0 0 0 3.881 4.636l24.656 24.7a35.143 35.143 0 0 0 5.076 4.2 23.381 23.381 0 0 1 -25.83-4.874l-2.859-2.86a23.377 23.377 0 0 1 -4.921-25.8z"/><path d="m193.507 239.811a5.982 5.982 0 0 0 4.242-1.757l53.6-53.6a6 6 0 0 0 -8.485-8.486l-53.6 53.6a6 6 0 0 0 4.242 10.243z"/><path d="m261.521 171.8a5.983 5.983 0 0 0 4.244-1.758l3.418-3.418a6 6 0 0 0 -8.487-8.485l-3.418 3.419a6 6 0 0 0 4.243 10.242z"/></g></svg>