<svg id="Layer_1" height="512" viewBox="0 0 512 512" width="512" xmlns="http://www.w3.org/2000/svg" data-name="Layer 1"><path d="m300.12 374.49-21.53 121.51h-98.59l-21.53-121.51z" fill="#7f7c78"/><path d="m158.47 374 21.53 122h30l-21.53-122z" fill="#605d5a"/><path d="m290.66 16a84.93 84.93 0 1 1 -84.93 84.93 84.939 84.939 0 0 1 84.93-84.93z" fill="#f5bf42"/><path d="m245.42 289.89-.82-.05a214.823 214.823 0 0 1 5.15-30.53c4.68-18.27 16.69-32.43 31.88-37.78l53.88-18.99c-2.19 51.21-30.19 94.84-80.68 87.93z" fill="#4ca987"/><path d="m209.28 275.33c-.12-.01-.24-.03-.36-.05-28.27-3.95-62.45-22.62-67.02-64.62l-5.5-43.74c42.4 1.86 75.52 44.9 73.99 96.14l-.38 12.37c-.24-.03-.49-.06-.73-.1z" fill="#5fcda4"/><path d="m290.66 40.76a60.17 60.17 0 1 1 -60.16 60.17 60.171 60.171 0 0 1 60.16-60.17z" fill="#efd66a"/><path d="m302.72 348h-146.84a13.739 13.739 0 0 0 -9.72 4.035 13.167 13.167 0 0 0 -4.02 9.473 13.529 13.529 0 0 0 13.74 13.492h146.605a13.753 13.753 0 0 0 9.827-3.775 13.539 13.539 0 0 0 -9.592-23.225z" fill="#9b9791"/><path d="m260.5 100.93a60.19 60.19 0 0 1 45.16-58.284 60.17 60.17 0 1 0 0 116.568 60.19 60.19 0 0 1 -45.16-58.284z" fill="#c1ad57"/><path d="m172.14 361.508a13.167 13.167 0 0 1 4.02-9.473 13.739 13.739 0 0 1 9.72-4.035h-30a13.739 13.739 0 0 0 -9.72 4.035 13.167 13.167 0 0 0 -4.02 9.473 13.529 13.529 0 0 0 13.74 13.492h30a13.529 13.529 0 0 1 -13.74-13.492z" fill="#7c7871"/><g fill="#284268"><path d="m356.833 100.932a66.168 66.168 0 1 0 -66.168 66.168 66.243 66.243 0 0 0 66.168-66.168zm-120.336 0a54.168 54.168 0 1 1 54.168 54.168 54.229 54.229 0 0 1 -54.165-54.168z"/><path d="m295 143.254a6 6 0 0 0 6-6v-3.326a19.507 19.507 0 0 0 10.127-32.786 19.471 19.471 0 0 0 -10.127-32.786v-3.747a6 6 0 1 0 -12 0v3.391h-3v-3.391a6 6 0 0 0 -12 0v3.391h-3.231a6 6 0 0 0 0 12h1.231v42h-1.231a6 6 0 0 0 0 12h3.231v3.254a6 6 0 1 0 12 0v-3.254h3v3.254a6 6 0 0 0 6 6zm-11-63.254h12.984a7.5 7.5 0 1 1 0 15h-12.984zm0 42v-15h12.984a7.5 7.5 0 1 1 0 15z"/><path d="m187.186 415.394a6 6 0 0 0 -4.95 6.893l7.095 43.225a6 6 0 1 0 11.841-1.944l-7.094-43.225a6 6 0 0 0 -6.892-4.949z"/><path d="m178.825 401.5.521 3.171a6 6 0 0 0 5.913 5.029 6.167 6.167 0 0 0 .98-.08 6 6 0 0 0 4.948-6.894l-.52-3.17a6 6 0 0 0 -11.842 1.944z"/><path d="m136.145 361.747a19.755 19.755 0 0 0 17.267 19.567l20.688 115.738a6 6 0 0 0 5.9 4.948h98.59a6 6 0 0 0 5.906-4.944l20.684-115.734a19.739 19.739 0 0 0 -2.463-39.322h-69.543c-.076-1-.16-1.307-.241-1.971a63.308 63.308 0 0 1 4-23.553 73.391 73.391 0 0 1 11.194-20.408l6.116.382a81.3 81.3 0 0 0 10.8.736 66.163 66.163 0 0 0 43.272-15.373c19.645-16.413 31.741-45.219 33.185-79.013a6 6 0 0 0 -7.99-5.915l-53.875 18.991c-17.178 6.055-30.522 21.738-35.7 41.952a220.022 220.022 0 0 0 -5.241 30.822q-2.217 2.838-4.2 5.876c-7.822-24.808-5.129-49.492 8.068-73.534a127.207 127.207 0 0 1 25.279-32.025 91.048 91.048 0 1 0 -12.813-4.375 139.265 139.265 0 0 0 -22.767 30.23c-12.511 22.6-16.665 46.454-12.419 70.146q-1.81-4.707-3.841-9.3c0-.018 0-.035 0-.053l.372-12.371c1.633-54.422-34.128-100.323-79.717-102.322a6 6 0 0 0 -6.216 6.743l5.487 43.644c2.231 20.5 11.489 37.982 26.772 50.562 11.564 9.518 26.535 16.167 42.432 18.894a190.726 190.726 0 0 1 13.036 42.271q1.71 9.23 2.792 18.048c.014.311.033.916.051.916h-65.135a19.766 19.766 0 0 0 -19.73 19.747zm119.419-100.947c4.179-16.324 14.668-28.889 28.06-33.61l45.224-15.94c-2.805 26.471-12.872 48.522-28.231 61.356-11.567 9.665-25.593 13.8-41.73 12.3l37.351-34.153a6 6 0 0 0 -8.1-8.856l-35.384 32.355c.827-4.865 1.763-9.364 2.81-13.452zm-16.1-100.014 2.152-2.236a6.023 6.023 0 0 0 -8.548-8.486l-2.247 2.271a79.19 79.19 0 0 1 -18.836-45.335h3.2a6 6 0 1 0 0-12h-3.2a79.378 79.378 0 0 1 18.826-45.4l2.236 2.219a6.005 6.005 0 0 0 8.486-8.5l-2.069-2.237a77.055 77.055 0 0 1 45.536-18.831v3.2a6 6 0 0 0 12 0v-3.2a78.792 78.792 0 0 1 45.2 18.827l-2.32 2.236a5.97 5.97 0 1 0 8.4 8.485l2.237-2.2a79.392 79.392 0 0 1 18.828 45.401h-3.2a6 6 0 0 0 0 12h3.2a79.179 79.179 0 0 1 -18.826 45.334l-2.237-2.253a6 6 0 1 0 -8.485 8.472l2.4 2.234a78.79 78.79 0 0 1 -45.197 18.825v-3.2a6 6 0 1 0 -12 0v3.2a77.054 77.054 0 0 1 -45.536-18.827zm-41.027 83.554-20.3-29.176a6 6 0 0 0 -9.85 6.855l20.3 29.175a173.1 173.1 0 0 1 9.725 15.742c-23.737-6.684-46.89-24.265-50.456-57.024l-4.556-36.245c33 5.552 58.472 38.9 60.927 79.543q-2.779-4.533-5.79-8.871zm75.131 245.66h-88.544l-19.391-109h127.326zm29.149-136a7.5 7.5 0 1 1 0 15h-146.842a7.5 7.5 0 1 1 0-15z"/></g></svg>