<svg id="Layer_1" height="512" viewBox="0 0 512 512" width="512" xmlns="http://www.w3.org/2000/svg" data-name="Layer 1"><path d="m117.24 94.29v.65l9.65 367.67a17.912 17.912 0 0 0 17.9 17.22h187.07l34.77-74.78h.12l8.74-310.11v-.65z" fill="#91b1c4"/><path d="m326.16 94.79v40.42h-24.21v-40.42-.5h24.21z" fill="#5fa8ed"/><path d="m190.78 94.79v40.42h-24.21v-40.42-.5h24.21z" fill="#5fa8ed"/><path d="m366.75 405.05a45.54 45.54 0 1 1 -.12 0z" fill="#6d7486"/><path d="m366.63 425.26a25.265 25.265 0 1 1 -25.27 25.26 25.261 25.261 0 0 1 25.27-25.26z" fill="#b0b5ca"/><path d="m307 33.89v1.28h-121.27v-11.15a9.979 9.979 0 0 1 9.78-8.02h101.7a9.99 9.99 0 0 1 9.79 8.02z" fill="#4689d3"/><path d="m156.89 462.61-9.65-367.67v-.65h-30v.65l9.65 367.67a17.912 17.912 0 0 0 17.9 17.22h30a17.912 17.912 0 0 1 -17.9-17.22z" fill="#6c8693"/><path d="m215.73 24.02a9.979 9.979 0 0 1 9.78-8.02h-30a9.979 9.979 0 0 0 -9.78 8.02v11.15h30z" fill="#3870a3"/><path d="m337.63 35.17h-182.53a17.913 17.913 0 0 0 -17.56 14.39v17.72h217.65v-17.72a17.913 17.913 0 0 0 -17.56-14.39z" fill="#5fa8ed"/><path d="m185.1 35.17h-30a17.913 17.913 0 0 0 -17.56 14.39v17.72h30v-17.72a17.913 17.913 0 0 1 17.56-14.39z" fill="#4f8ec1"/><path d="m379.33 67.28h-265.93a13.505 13.505 0 0 0 0 27.01h265.93a13.505 13.505 0 0 0 0-27.01z" fill="#4689d3"/><path d="m129.9 80.78a13.5 13.5 0 0 1 13.5-13.5h-30a13.505 13.505 0 0 0 0 27.01h30a13.5 13.5 0 0 1 -13.5-13.51z" fill="#3870a3"/><g fill="#284268"><path d="m145.283 242.179h.152a6 6 0 0 0 5.849-6.147l-.327-13.23a6 6 0 1 0 -12 .3l.327 13.23a6 6 0 0 0 5.999 5.847z"/><path d="m145.4 258.674h-.18a6 6 0 0 0 -5.82 6.175l2.4 80.947a6 6 0 0 0 5.994 5.822h.181a6 6 0 0 0 5.819-6.175l-2.4-80.947a6 6 0 0 0 -5.994-5.822z"/><path d="m366.625 419.258a31.265 31.265 0 1 0 31.266 31.264 31.3 31.3 0 0 0 -31.266-31.264zm0 50.53a19.265 19.265 0 1 1 19.266-19.266 19.287 19.287 0 0 1 -19.266 19.266z"/><path d="m372.916 399.444 8.426-299.262a19.5 19.5 0 0 0 -2.015-38.9h-18.14v-11.727a5.993 5.993 0 0 0 -.118-1.18 23.976 23.976 0 0 0 -23.444-19.21h-24.625v-5.147a6 6 0 0 0 -.117-1.181 16.025 16.025 0 0 0 -15.668-12.837h-101.7a16.023 16.023 0 0 0 -15.668 12.838 6 6 0 0 0 -.117 1.18v5.147h-24.63a23.982 23.982 0 0 0 -23.446 19.209 6 6 0 0 0 -.117 1.181v11.725h-18.137a19.5 19.5 0 0 0 -2.024 38.9l9.52 362.659a23.838 23.838 0 0 0 23.893 22.991h184.428a51.457 51.457 0 1 0 43.7-86.386zm-181.188-374.694a3.991 3.991 0 0 1 3.785-2.75h101.7a4 4 0 0 1 3.787 2.751v4.414h-109.272zm-48.188 25.462a11.949 11.949 0 0 1 11.56-9.047h182.525a11.946 11.946 0 0 1 11.562 9.047v11.068h-205.647zm-30.14 38.074a7.5 7.5 0 0 1 0-15.006h265.927a7.5 7.5 0 0 1 0 15.006zm206.759 12v28.929h-12.212v-28.929zm-135.379 0v28.929h-12.212v-28.929zm-39.991 373.544a11.858 11.858 0 0 1 -11.9-11.379l-9.505-362.165h37.184v34.929a6 6 0 0 0 6 6h24.212a6 6 0 0 0 6-6v-34.929h99.167v34.929a6 6 0 0 0 6 6h24.212a6 6 0 0 0 6-6v-34.929h37.174l-8.421 299.085a51.43 51.43 0 0 0 -40.162 74.459zm221.836 16.17a39.477 39.477 0 1 1 39.475-39.478 39.522 39.522 0 0 1 -39.475 39.478z"/></g></svg>