<svg id="Layer_1" height="512" viewBox="0 0 512 512" width="512" xmlns="http://www.w3.org/2000/svg" data-name="Layer 1"><path d="m190.46 388 2.83 64.86-135.31-.42-.14-.22 32.22-64.22z" fill="#4ca987"/><path d="m458.89 454h-132.89v35.2l-61.18-69.61 61.18-68.94v36.93l98.82.1.11-.06 33.96 65.46.38.2z" fill="#4ca987"/><path d="m205.69 24 36.43 63.31-.06.04-52.24 82.55-56.65-31.98 71.83-113.92z" fill="#4ca987"/><path d="m139.04 233.84-90.58 19.44 31.97 17.85-64.44 115.35 41.85 65.74 79.45-149.1 32.05 17.78z" fill="#5fcda4"/><path d="m430.16 265.57-55.47 34.23 84.2 153.28.38.2 36.73-68.8z" fill="#5fcda4"/><path d="m146.954 256.58-7.914-22.74-90.58 19.44 31.617 17.653z" fill="#4ca987"/><path d="m110.43 289.13-30.532-17.047-63.908 114.397 21.272 33.415z" fill="#4ca987"/><path d="m225.091 57.716-19.401-33.716h-.69l-71.83 113.92 30.495 17.215z" fill="#40876a"/><path d="m346.04 138.81-63.15-114.81h-77.2l83.61 145.29-32.11 17.56 89.84 20.6 31.73-87.07z" fill="#5fcda4"/><g fill="#284268"><path d="m347.031 213.453a6 6 0 0 0 5.635-3.947l31.734-87.071a6 6 0 0 0 -8.582-7.282l-27.438 15.455-60.231-109.5a6 6 0 0 0 -5.263-3.108h-77.886a6 6 0 0 0 -5.076 2.8l-71.824 113.922a6 6 0 0 0 2.126 8.425l56.65 31.977a6 6 0 0 0 8.02-2.017l46.969-74.226 39.182 68.083-26.73 14.619a6 6 0 0 0 1.537 11.112l89.833 20.605a6.018 6.018 0 0 0 1.344.153zm-159.226-51.584-46.2-26.076 63.522-100.745 29.973 52.08zm86.129 22.661 18.25-9.98a6 6 0 0 0 2.321-8.257l-78.438-136.293h63.272l61.443 111.7a6 6 0 0 0 8.2 2.336l18.581-10.466-24.36 66.847z"/><path d="m435.406 262.663a6 6 0 0 0 -8.4-2.2l-55.471 34.237a6 6 0 0 0 -2.108 8l43.386 78.974-80.813-.09v-30.932a6 6 0 0 0 -10.488-3.982l-61.175 68.936a6 6 0 0 0 -.019 7.943l61.175 69.613a6 6 0 0 0 10.507-3.962v-29.2h126.889a6 6 0 0 0 5.293-3.175l37.11-69.523a6 6 0 0 0 -.044-5.732zm-109.406 185.337a6 6 0 0 0 -6 6v19.284l-47.171-53.676 47.171-53.155v21.125a6 6 0 0 0 5.994 6l93.416.1 29.845 54.322zm133.063-7.068-76.372-139.018 45.264-27.935 61.214 110.55z"/><path d="m190.458 382h-88.407l37.661-70.675 26.715 14.821a6 6 0 0 0 8.573-7.219l-30.3-87.059a6 6 0 0 0 -6.925-3.894l-90.575 19.444a6 6 0 0 0 -1.665 11.107l26.725 14.919-61.503 110.116a6.017 6.017 0 0 0 .176 6.157l41.99 65.975a6.031 6.031 0 0 0 5.043 2.813l135.308.5h.019a6.068 6.068 0 0 0 4.328-1.914 6.156 6.156 0 0 0 1.666-4.487l-2.835-64.861a6 6 0 0 0 -5.994-5.743zm-133.078 58.314-34.4-54.037 62.684-112.225a6 6 0 0 0 -2.314-8.165l-18.06-10.08 69.825-14.988 23.39 67.209-18.305-10.157a6 6 0 0 0 -8.206 2.425zm10.32 6.152 27.957-52.466h89.057l2.31 52.842z"/><path d="m94.835 285.7a6 6 0 0 0 -8.177 2.266l-1.313 2.32a6 6 0 1 0 10.443 5.914l1.313-2.32a6 6 0 0 0 -2.266-8.18z"/><path d="m83.853 305.105a6 6 0 0 0 -8.177 2.267l-23.561 41.628a6 6 0 1 0 10.443 5.91l23.561-41.63a6 6 0 0 0 -2.266-8.175z"/></g></svg>